<svg width="114" height="107" viewBox="0 0 114 107" fill="none" xmlns="http://www.w3.org/2000/svg">
<path d="M107.031 57.4599C110.695 51.6817 112.856 44.8783 112.856 37.5623C112.856 17.0122 96.0385 0.376465 75.3215 0.376465C58.4566 0.376465 44.1755 11.4204 39.4778 26.6582C62.9665 27.0776 81.8983 46.1364 81.8983 69.4824C81.8983 71.0668 81.8044 72.6977 81.6165 74.2355C86.5021 73.3967 91.1059 71.626 95.146 69.1096C102.333 76.0062 113.843 74.1423 113.843 74.1423C107.407 68.9232 106.89 63.2848 107.031 57.4599Z" fill="#090F1F"/>
<path d="M38.6792 32.2969C17.9622 32.2969 1.19128 48.9326 1.19128 69.4827C1.19128 76.7987 3.35224 83.6487 7.01647 89.3803C7.11042 95.1586 6.64065 100.844 0.157776 106.063C0.157776 106.063 11.6672 107.927 18.8548 101.03C24.633 104.618 31.3977 106.668 38.6792 106.668C59.3962 106.668 76.1671 90.0327 76.1671 69.4827C76.1671 48.9326 59.3962 32.2969 38.6792 32.2969ZM21.3446 76.0997C18.0092 76.0997 15.3315 73.4436 15.3315 70.1351C15.3315 66.8265 18.0561 64.217 21.3446 64.217C24.68 64.217 27.3577 66.8731 27.3577 70.1817C27.3577 73.4902 24.68 76.0997 21.3446 76.0997ZM39.4308 76.0997C36.0955 76.0997 33.4177 73.4436 33.4177 70.1351C33.4177 66.8265 36.0955 64.217 39.4308 64.217C42.7662 64.217 45.4439 66.8731 45.4439 70.1817C45.4439 73.4902 42.7662 76.0997 39.4308 76.0997ZM55.732 76.0997C52.3966 76.0997 49.7189 73.4436 49.7189 70.1351C49.7189 66.8265 52.3966 64.1704 55.732 64.1704C59.0674 64.1704 61.7451 66.8265 61.7451 70.1351C61.7451 73.4436 59.0674 76.0997 55.732 76.0997Z" fill="#FFC700"/>
</svg>
